<svg xmlns="http://www.w3.org/2000/svg" viewBox="0 0 151.38 152.65"><defs></defs><g id="Layer_2" data-name="Layer 2"><g id="Capa_1" data-name="Capa 1"><path fill="#ffffff" d="M.44,1.83c18.47,0,37-.1,55.42.18A46.77,46.77,0,0,1,97.38,70.06C92,80.77,83.08,87.71,71.85,92.9c16.89,7.66,26.73,20.36,30.63,37.76h-23c-3.22-12-8-22.71-20.83-27.49A93.74,93.74,0,0,0,23.4,97.53v33.13H.44ZM23.88,10v78.7c6.89-.5,13.26-.62,19.53-1.48,14.63-2,26.7-7.85,32.83-22.51,9.46-22.64-.4-45.43-22.89-50.88C44,11.58,34.14,11.29,23.88,10Z"/><path fill="#ffffff" d="M142.48,74.27h6.15V55.05h-6.15a37.81,37.81,0,1,0,0,75.61h6.15V111.44h-6.15a18.59,18.59,0,0,1,0-37.17Z"/><path fill="#ffffff" d="M147.81,36A36.44,36.44,0,0,1,137,47.61a24.13,24.13,0,0,1-13.27,3.83q-7.29,0-11.32-4t-4-11.15A31,31,0,0,1,110.4,25.4a46.29,46.29,0,0,1,6.37-11.3,38.82,38.82,0,0,1,11-10.32A23.19,23.19,0,0,1,139.89,0q5.51,0,8.5,2.52a8.86,8.86,0,0,1,3,7.18q0,7.29-7.52,12.87T122.43,31l-.15,1.68v2a10.15,10.15,0,0,0,1.88,6.4,6.15,6.15,0,0,0,5.09,2.41,12.81,12.81,0,0,0,7.21-2.68,34.68,34.68,0,0,0,7.63-7.65ZM123,25.59a29.64,29.64,0,0,0,13.92-5.54q5.43-4.22,5.43-9.2a4.73,4.73,0,0,0-1.44-3.51,5.09,5.09,0,0,0-3.7-1.41q-4.87,0-9,5.5T123,25.59Z"/><path fill="#ffffff" d="M4.44,148.24H2.24v4.31H0V141.09H4.44a3.58,3.58,0,1,1,0,7.15Zm-.11-5.15H2.24v3.14H4.33a1.57,1.57,0,1,0,0-3.14Z"/><path fill="#ffffff" d="M23.84,152.55l-.68-2H19.09l-.69,2H16.06l4.17-11.46H22l4.18,11.46Zm-2.67-8.08-1.45,4.17h2.85Z"/><path fill="#ffffff" d="M41.69,152.55,39.45,148H37.84v4.57H35.6V141.09h4.49a3.47,3.47,0,0,1,3.72,3.51,3.08,3.08,0,0,1-2.09,3l2.56,4.94ZM40,143.09H37.84v3H40a1.52,1.52,0,1,0,0-3Z"/><path fill="#ffffff" d="M54.14,152.55V141.09h7.55v2H56.38v2.69H60.9v2H56.38v2.79h5.31v2Z"/><path fill="#ffffff" d="M78.67,152.55l-4.54-7v7H71.9V141.09h2l4.54,7v-7h2.24v11.46Z"/><path fill="#ffffff" d="M95.73,143.09v9.46H93.5v-9.46h-3v-2h8.23v2Z"/><path fill="#ffffff" d="M108.56,152.55V141.09h2.24v11.46Z"/><path fill="#ffffff" d="M128.26,152.55l-4.54-7v7h-2.24V141.09h2l4.54,7v-7h2.24v11.46Z"/><path fill="#ffffff" d="M148,151.35a4.3,4.3,0,0,1-3.24,1.3,4.23,4.23,0,0,1-3.09-1.25,3.31,3.31,0,0,1-.93-1.73,21.47,21.47,0,0,1,0-5.7,3.25,3.25,0,0,1,.93-1.72,4.19,4.19,0,0,1,3.09-1.25,4.11,4.11,0,0,1,4.32,3.67h-2.25a2,2,0,0,0-2.07-1.68,1.84,1.84,0,0,0-1.43.61c-.42.54-.55,1-.55,3.22s.1,2.71.55,3.24a1.77,1.77,0,0,0,1.43.59,2.05,2.05,0,0,0,1.6-.64,2.24,2.24,0,0,0,.51-1.53v-.43h-2.11v-1.87h4.34v1.67A4.6,4.6,0,0,1,148,151.35Z"/></g></g></svg>